<svg xmlns="http://www.w3.org/2000/svg" width="24" height="24" viewBox="0 0 24 24">
  <g id="web" transform="translate(-6.336 -8.867)">
    <g id="Group_4398" data-name="Group 4398" transform="translate(6.336 8.868)">
      <g id="Group_4397" data-name="Group 4397">
        <path id="Path_4883" data-name="Path 4883" d="M88.578,139.654a.55.55,0,0,0,.089.067,11.946,11.946,0,0,0,17.408-.005.56.56,0,0,0,.084-.06.586.586,0,0,0,.052-.088,11.927,11.927,0,0,0,0-16.169h0a.587.587,0,0,0-.052-.088.538.538,0,0,0-.089-.067,11.946,11.946,0,0,0-17.4,0,.534.534,0,0,0-.089.067.587.587,0,0,0-.052.088,11.927,11.927,0,0,0,0,16.169A.58.58,0,0,0,88.578,139.654Zm12.061,2.116a11.026,11.026,0,0,0,2.043-3.78v0a10.986,10.986,0,0,1,2.12,1.3A10.8,10.8,0,0,1,100.639,141.77Zm4.991-3.349a12.168,12.168,0,0,0-2.608-1.6,21.389,21.389,0,0,0,.628-4.74h4.485A10.74,10.74,0,0,1,105.63,138.421Zm2.506-7.539H103.65a21.4,21.4,0,0,0-.628-4.74,12.169,12.169,0,0,0,2.608-1.6A10.74,10.74,0,0,1,108.135,130.882Zm-3.334-7.213a10.983,10.983,0,0,1-2.12,1.3,11.026,11.026,0,0,0-2.043-3.782A10.8,10.8,0,0,1,104.8,123.669Zm-6.836-2.9c1.471.385,2.771,2.153,3.591,4.657a12.74,12.74,0,0,1-3.591.683Zm0,6.541a13.875,13.875,0,0,0,3.922-.72,20.315,20.315,0,0,1,.563,4.3H97.966Zm0,4.775h4.485a20.313,20.313,0,0,1-.563,4.294,13.874,13.874,0,0,0-3.922-.719Zm0,4.776a12.74,12.74,0,0,1,3.591.684c-.82,2.5-2.12,4.271-3.591,4.657Zm-8.036,2.433a10.987,10.987,0,0,1,2.12-1.3v0a11.025,11.025,0,0,0,2.043,3.78A10.8,10.8,0,0,1,89.93,139.291Zm6.836,2.907c-1.471-.385-2.771-2.153-3.591-4.657a12.739,12.739,0,0,1,3.591-.683v5.34Zm0-6.541a13.877,13.877,0,0,0-3.922.72,20.314,20.314,0,0,1-.563-4.3h4.485Zm0-4.775H92.281a20.314,20.314,0,0,1,.563-4.294,13.874,13.874,0,0,0,3.922.719Zm0-10.117v5.341a12.74,12.74,0,0,1-3.591-.684C93.995,122.919,95.3,121.15,96.766,120.765Zm-2.673.425a11.026,11.026,0,0,0-2.043,3.784v0a10.982,10.982,0,0,1-2.12-1.3A10.8,10.8,0,0,1,94.093,121.19ZM89.1,124.543a12.168,12.168,0,0,0,2.608,1.6,21.39,21.39,0,0,0-.628,4.74H86.6A10.74,10.74,0,0,1,89.1,124.543Zm1.979,7.539a21.4,21.4,0,0,0,.628,4.74,12.17,12.17,0,0,0-2.608,1.6,10.74,10.74,0,0,1-2.506-6.338h4.485Z" transform="translate(-85.369 -119.483)" fill="#fff"/>
      </g>
    </g>
  </g>
</svg>
