<svg id="pallet" xmlns="http://www.w3.org/2000/svg" width="24" height="24" viewBox="0 0 24 24">
  <path id="Path_4426" data-name="Path 4426" d="M50.3,390.215a1.851,1.851,0,1,0,1.851,1.851A1.853,1.853,0,0,0,50.3,390.215Zm0,2.989a1.138,1.138,0,1,1,1.138-1.138A1.139,1.139,0,0,1,50.3,393.2Zm0,0" transform="translate(-46.182 -371.627)" fill="#fff"/>
  <path id="Path_4427" data-name="Path 4427" d="M252.757,390.215a1.851,1.851,0,1,0,1.851,1.851A1.853,1.853,0,0,0,252.757,390.215Zm0,2.989a1.138,1.138,0,1,1,1.138-1.138A1.139,1.139,0,0,1,252.757,393.2Zm0,0" transform="translate(-239.145 -371.627)" fill="#fff"/>
  <path id="Path_4428" data-name="Path 4428" d="M24,9.607V4.961a1.486,1.486,0,0,0-1.475-1.494H17.936a1.453,1.453,0,0,0-.762.215V.361A.359.359,0,0,0,16.817,0H15.331a.359.359,0,0,0-.357.361V2.987a.356.356,0,1,0,.713,0V.722h.773v15.8a1.486,1.486,0,0,0,1.475,1.494H20.13V18.8H16.8a3.618,3.618,0,0,0-1.116-1.33V4.431a.356.356,0,1,0-.713,0V15.6h-.986L10.115,4.609a1.7,1.7,0,0,0-1.6-1.142H2.49a1.711,1.711,0,0,0-1.7,1.72V12.91a.356.356,0,1,0,.713,0V5.188a.993.993,0,0,1,.986-1H8.516a.989.989,0,0,1,.929.663L13.232,15.6H1.5V14.354a.356.356,0,1,0-.713,0V15.6H.357A.359.359,0,0,0,0,15.958v4.436a.359.359,0,0,0,.357.361H.579A3.583,3.583,0,0,0,4.122,24a3.583,3.583,0,0,0,3.544-3.245h2.4a3.56,3.56,0,0,0,7.105-.361,3.638,3.638,0,0,0-.107-.877h3.419a.359.359,0,0,0,.356-.361V18.013h1.682A1.486,1.486,0,0,0,24,16.519V11.873a1.5,1.5,0,0,0-.515-1.133A1.5,1.5,0,0,0,24,9.607Zm-9.025,6.712v.744a3.5,3.5,0,0,0-1.362-.275,3.583,3.583,0,0,0-3.544,3.245h-2.4a3.583,3.583,0,0,0-3.544-3.245A3.573,3.573,0,0,0,.713,19.353V16.319ZM4.122,23.278a2.884,2.884,0,0,1,0-5.769,2.884,2.884,0,0,1,0,5.769Zm9.49,0a2.884,2.884,0,1,1,2.849-2.884A2.87,2.87,0,0,1,13.612,23.278Zm9.675-11.405v4.646a.768.768,0,0,1-.762.772h-4.59a.768.768,0,0,1-.761-.772V11.873a.768.768,0,0,1,.762-.772h4.589A.768.768,0,0,1,23.287,11.873Zm-5.351-1.494a.768.768,0,0,1-.762-.772V4.961a.768.768,0,0,1,.762-.772h4.589a.768.768,0,0,1,.762.772V9.607a.768.768,0,0,1-.762.772Zm0,0" fill="#fff"/>
  <path id="Path_4429" data-name="Path 4429" d="M72.518,123.99a.357.357,0,0,0-.336-.237H67.919a.357.357,0,0,0-.357.357v5.517a.357.357,0,0,0,.357.357h6.232a.356.356,0,0,0,.336-.476Zm-4.243,5.28v-4.8h3.656l1.714,4.8Zm0,0" transform="translate(-64.396 -117.855)" fill="#fff"/>
  <path id="Path_4430" data-name="Path 4430" d="M178.391,274.5a.356.356,0,0,0,.357.356h1.579a.356.356,0,0,0,0-.713h-1.579A.357.357,0,0,0,178.391,274.5Zm0,0" transform="translate(-170.029 -261.125)" fill="#fff"/>
</svg>
