<svg xmlns="http://www.w3.org/2000/svg" width="24" height="24" viewBox="0 0 24 24">
  <g id="Group_5012" data-name="Group 5012" transform="translate(0 0.014)">
    <g id="Path_746" data-name="Path 746" transform="translate(-25.076 -32.109)" fill="none">
      <path d="M33.538,56.008V49.15c-.568-.022-1.07-.044-1.638-.087V40.5H42.21v8.541c-.5.044-1.027.066-1.638.109v6.859Z" stroke="none"/>
      <path d="M 39.87160873413086 55.30840301513672 L 39.87160873413086 49.14975357055664 L 39.87160873413086 48.49796295166016 L 40.5217399597168 48.45153427124023 C 40.78093719482422 48.43302536010742 41.02167892456055 48.41855239868164 41.25449752807617 48.4045524597168 C 41.34089660644531 48.39936065673828 41.42597198486328 48.39424896240234 41.50981903076172 48.38905334472656 L 41.50981903076172 41.19999313354492 L 32.59999847412109 41.19999313354492 L 32.59999847412109 48.40692520141602 C 32.92890930175781 48.42512512207031 33.24589920043945 48.4379997253418 33.56510925292969 48.45027542114258 L 34.23820877075195 48.47615432739258 L 34.23820877075195 49.14975357055664 L 34.23820877075195 55.30840301513672 L 39.87160873413086 55.30840301513672 M 40.57160949707031 56.00840377807617 C 38.23441696166992 56.00840377807617 35.9627685546875 56.00840377807617 33.5382080078125 56.00840377807617 C 33.5382080078125 53.69306564331055 33.5382080078125 51.44325256347656 33.5382080078125 49.14975357055664 C 32.97029876708984 49.12791442871094 32.46791839599609 49.10607528686523 31.89999961853027 49.06239318847656 C 31.89999961853027 46.22281265258789 31.89999961853027 43.40509414672852 31.89999961853027 40.49999237060547 C 35.28564834594727 40.49999237060547 38.71496963500977 40.49999237060547 42.20981979370117 40.49999237060547 C 42.20981979370117 43.31772232055664 42.20981979370117 46.13544464111328 42.20981979370117 49.04054260253906 C 41.70743942260742 49.08422470092773 41.18320846557617 49.10607528686523 40.57160949707031 49.14975357055664 C 40.57160949707031 51.42141342163086 40.57160949707031 53.67122268676758 40.57160949707031 56.00840377807617 Z" stroke="none" fill="#fff"/>
    </g>
    <g id="Path_747" data-name="Path 747" transform="translate(0 -32.031)" fill="none">
      <path d="M6.815,56H1.7v-6.9C1.07,49.05.59,49.028,0,48.984V40.4H5.089V50.754c.633.044,1.158.066,1.726.109C6.815,52.588,6.815,54.227,6.815,56Z" stroke="none"/>
      <path d="M 6.114961624145508 55.29578018188477 L 6.114961624145508 51.5174560546875 C 6.025521755218506 51.51211547851563 5.935317993164063 51.50687789916992 5.84365177154541 51.50155258178711 C 5.589711666107178 51.48681259155273 5.327121734619141 51.47156143188477 5.041211605072021 51.45183944702148 L 4.389381885528564 51.40687942504883 L 4.389381885528564 50.75350189208984 L 4.389381885528564 41.10000228881836 L 0.7000016570091248 41.10000228881836 L 0.7000016570091248 48.32936859130859 C 0.7841345071792603 48.33451080322266 0.8684713244438171 48.33956146240234 0.9541516900062561 48.34469223022461 C 1.203661680221558 48.3596305847168 1.461661696434021 48.37508010864258 1.751901626586914 48.39509963989258 L 2.403741598129272 48.4400520324707 L 2.403741598129272 49.09344100952148 L 2.403741598129272 55.29578018188477 L 6.114961624145508 55.29578018188477 M 6.814961433410645 55.99578094482422 C 5.067541599273682 55.99578094482422 3.451171636581421 55.99578094482422 1.703741669654846 55.99578094482422 C 1.703741669654846 53.7022819519043 1.703741669654846 51.43062210083008 1.703741669654846 49.09344100952148 C 1.070301651954651 49.04976272583008 0.589751660823822 49.02791213989258 1.670379674578726e-06 48.98423004150391 C 1.670379674578726e-06 46.14466094970703 1.670379674578726e-06 43.30509185791016 1.670379674578726e-06 40.40000152587891 C 1.660051703453064 40.40000152587891 3.298271656036377 40.40000152587891 5.089381694793701 40.40000152587891 C 5.089381694793701 43.82932281494141 5.089381694793701 47.25864028930664 5.089381694793701 50.75350189208984 C 5.722821712493896 50.79719161987305 6.24705171585083 50.81903076171875 6.814961433410645 50.86272048950195 C 6.814961433410645 52.58829116821289 6.814961433410645 54.22651290893555 6.814961433410645 55.99578094482422 Z" stroke="none" fill="#fff"/>
    </g>
    <g id="Path_748" data-name="Path 748" transform="translate(-62.815 -31.953)" fill="none">
      <path d="M85.133,55.939H80.59c-.175,0-.349-.022-.59-.044V50.785c.5-.022,1.027-.066,1.66-.109V40.3h5.155v8.584c-.481.022-1,.066-1.66.109C85.133,51.287,85.133,53.559,85.133,55.939Z" stroke="none"/>
      <path d="M 84.43308258056641 55.23946762084961 C 84.43327331542969 53.10171127319336 84.43521118164063 51.05861282348633 84.45493316650391 48.98677444458008 L 84.46111297607422 48.338134765625 L 85.10834503173828 48.29499435424805 C 85.32570648193359 48.2805061340332 85.52855682373047 48.26601409912109 85.72013854980469 48.25233459472656 C 85.85768127441406 48.24251174926758 85.98869323730469 48.233154296875 86.11496734619141 48.2244987487793 L 86.11496734619141 41.00000381469727 L 82.36005401611328 41.00000381469727 L 82.36005401611328 50.67534637451172 L 82.36005401611328 51.3287353515625 L 81.70821380615234 51.37368392944336 C 81.53093719482422 51.38591384887695 81.36225891113281 51.39813613891602 81.20023345947266 51.40987396240234 C 81.02507781982422 51.42257308959961 80.85969543457031 51.4345588684082 80.69999694824219 51.44539642333984 L 80.69999694824219 55.23946762084961 L 84.43308258056641 55.23946762084961 M 85.13306427001953 55.9394645690918 C 83.49485778808594 55.9394645690918 82.03138732910156 55.9394645690918 80.58975219726563 55.9394645690918 C 80.41500854492188 55.9394645690918 80.24026489257813 55.91762542724609 79.99999237060547 55.89578628540039 C 79.99999237060547 54.21388626098633 79.99999237060547 52.55382537841797 79.99999237060547 50.78456497192383 C 80.50238800048828 50.76271438598633 81.02661895751953 50.71902465820313 81.66005706787109 50.67534637451172 C 81.66005706787109 47.22417449951172 81.66005706787109 43.79485702514648 81.66005706787109 40.30000686645508 C 83.42932891845703 40.30000686645508 85.08937835693359 40.30000686645508 86.81496429443359 40.30000686645508 C 86.81496429443359 43.13957595825195 86.81496429443359 45.95729446411133 86.81496429443359 48.88423538208008 C 86.33441925048828 48.90607452392578 85.81019592285156 48.94976425170898 85.1549072265625 48.99344635009766 C 85.13306427001953 51.28694534301758 85.13306427001953 53.55859756469727 85.13306427001953 55.9394645690918 Z" stroke="none" fill="#fff"/>
    </g>
    <g id="Path_749" data-name="Path 749" transform="translate(-31.015 -0.088)" fill="none">
      <path d="M43.081.1a3.377,3.377,0,0,1,3.386,3.6A3.485,3.485,0,0,1,39.5,3.528,3.417,3.417,0,0,1,43.081.1Z" stroke="none"/>
      <path d="M 43.03583526611328 0.7988772392272949 C 41.40215301513672 0.7988772392272949 40.2362174987793 1.92562198638916 40.19905090332031 3.53933048248291 C 40.19126129150391 4.314478874206543 40.45756530761719 5.026664257049561 40.9490852355957 5.545117378234863 C 41.43562698364258 6.058317184448242 42.11319351196289 6.350257396697998 42.85601425170898 6.367147445678711 C 42.88144683837891 6.367687225341797 42.90652465820313 6.36795711517334 42.93176651000977 6.36795711517334 C 44.55742645263672 6.36795711517334 45.74982452392578 5.243987083435059 45.76702499389648 3.695817232131958 C 45.78479385375977 2.007887363433838 44.67724609375 0.8167071342468262 43.07400512695313 0.7990870475769043 L 43.03583526611328 0.7988772392272949 M 43.03583526611328 0.09888219833374023 C 43.051025390625 0.09888219833374023 43.06609344482422 0.09896326065063477 43.08134460449219 0.09912729263305664 C 45.06904602050781 0.1209673881530762 46.48883438110352 1.628127098083496 46.46698379516602 3.703187227249146 C 46.44546890258789 5.639890670776367 44.93964385986328 7.067954063415527 42.93177032470703 7.067954063415527 C 42.90154266357422 7.067954063415527 42.87152862548828 7.067635059356689 42.8410758972168 7.066987037658691 C 40.91890335083008 7.023297309875488 39.47727584838867 5.516147136688232 39.49912643432617 3.528447151184082 C 39.54247665405273 1.533993244171143 41.02756881713867 0.09888219833374023 43.03583526611328 0.09888219833374023 Z" stroke="none" fill="#fff"/>
    </g>
    <g id="Path_750" data-name="Path 750" transform="translate(-5.832 -0.026)" fill="none">
      <path d="M13.39,5.979a3.451,3.451,0,0,1-4.958-.044A3.491,3.491,0,0,1,13.368,1,5.172,5.172,0,0,0,13.39,5.979Z" stroke="none"/>
      <path d="M 10.85355091094971 6.305781841278076 C 11.42037963867188 6.305781841278076 11.98515319824219 6.123348712921143 12.51019859313965 5.773962497711182 C 11.88987255096436 4.340223789215088 11.88798332214355 2.817859411239624 12.50478267669678 1.234082698822021 C 11.97335243225098 0.8965641856193542 11.40874767303467 0.7202416062355042 10.84920120239258 0.7202416062355042 C 10.1188907623291 0.7202416062355042 9.451971054077148 1.019861578941345 8.921060562133789 1.586171627044678 C 8.429580688476563 2.111551523208618 8.160161018371582 2.801021575927734 8.162441253662109 3.527591705322266 C 8.164710998535156 4.253711700439453 8.439030647277832 4.935921669006348 8.934870719909668 5.448561668395996 L 8.936651229858398 5.450411796569824 L 8.938421249389648 5.452271461486816 C 9.470610618591309 6.010641574859619 10.13285064697266 6.305781841278076 10.85355091094971 6.305781841278076 M 10.85354804992676 7.005781173706055 C 9.965177536010742 7.005781173706055 9.108325004577637 6.645118236541748 8.431711196899414 5.935221672058105 C 7.142991065979004 4.602811813354492 7.142991065979004 2.462211608886719 8.409871101379395 1.107961654663086 C 9.085873603820801 0.3868928253650665 9.948144912719727 0.02024052105844021 10.84919834136963 0.02024052105844021 C 11.6950216293335 0.02024052105844021 12.57498264312744 0.343024730682373 13.36819076538086 0.998741626739502 C 12.60369110107422 2.615111589431763 12.45079135894775 4.275171756744385 13.39003086090088 5.978911399841309 C 12.60522842407227 6.6669602394104 11.71458339691162 7.005781173706055 10.85354804992676 7.005781173706055 Z" stroke="none" fill="#fff"/>
    </g>
    <g id="Path_751" data-name="Path 751" transform="translate(-60.001)" fill="none">
      <path d="M76.4,1.016a3.471,3.471,0,0,1,4.958.022,3.5,3.5,0,0,1-4.915,4.98A5.276,5.276,0,0,0,76.4,1.016Z" stroke="none"/>
      <path d="M 78.93820953369141 0.6868352890014648 C 78.36511993408203 0.6868352890014648 77.79936981201172 0.8691825866699219 77.27860260009766 1.218401432037354 C 77.89898681640625 2.649920463562012 77.90795135498047 4.1773681640625 77.30508422851563 5.772611141204834 C 77.83386993408203 6.098908424377441 78.39423370361328 6.269335269927979 78.94845581054688 6.269335269927979 C 79.7158203125 6.269335269927979 80.40524291992188 5.947035312652588 80.94021606445313 5.339545249938965 C 81.89884948730469 4.241475105285645 81.86143493652344 2.56578540802002 80.85543823242188 1.525095462799072 C 80.32444763183594 0.9767050743103027 79.66148376464844 0.6868352890014648 78.93820953369141 0.6868352890014648 M 78.93820190429688 -0.01316452026367188 C 79.82572174072266 -0.01316452026367188 80.68422698974609 0.3419680595397949 81.35832977294922 1.038165092468262 C 82.62520599365234 2.348735332489014 82.66889953613281 4.423805236816406 81.46753692626953 5.799905300140381 C 80.78581237792969 6.574069023132324 79.88990783691406 6.969334125518799 78.94845581054688 6.969334125518799 C 78.11019134521484 6.969334125518799 77.23586273193359 6.656198501586914 76.44367980957031 6.018335342407227 C 77.18634033203125 4.401965141296387 77.3392333984375 2.720065116882324 76.39999389648438 1.0163254737854 C 77.17702484130859 0.3256316184997559 78.07145690917969 -0.01316452026367188 78.93820190429688 -0.01316452026367188 Z" stroke="none" fill="#fff"/>
    </g>
  </g>
</svg>
