<svg xmlns="http://www.w3.org/2000/svg" width="26.953" height="24.258" viewBox="0 0 26.953 24.258">
  <path id="coins" d="M26.949,11.086c-.044-.769-.959-1.369-2.787-1.827a1.013,1.013,0,0,0,.1-.42V5.7h-.008C24.09,3.077,13.361,3,12.129,3S.168,3.077.008,5.7H0v.058H0V8.84c0,.854,1.1,1.522,2.743,2.019a.985.985,0,0,0-.04.228H2.7v.058h0v3.08C.93,14.679.048,15.272,0,16.028H0v.058H0v3.086c0,.594.537,1.1,1.414,1.518a.99.99,0,0,0-.06.279H1.348v.058h0v3.086c0,1.494,3.368,2.422,7.106,2.855a.412.412,0,0,0,.082.017c.009,0,.016,0,.024,0,.721.081,1.453.145,2.177.19a.371.371,0,0,0,.044.009c.009,0,.015,0,.023,0,.92.056,1.825.084,2.672.084s1.752-.028,2.672-.084c.008,0,.015,0,.023,0s.029-.008.044-.009c.725-.045,1.457-.108,2.177-.19.009,0,.016,0,.024,0a.413.413,0,0,0,.082-.017c3.738-.433,7.1-1.361,7.106-2.856V20.969H25.6c-.031-.551-.5-1.01-1.428-1.394a1,1,0,0,0,.088-.4V16.234c1.613-.5,2.693-1.159,2.7-2.005V11.086Zm-3.637,8.23-.153.134a4.019,4.019,0,0,1-1.146.62V17.929a6.685,6.685,0,0,0,1.348-.618v1.859A.286.286,0,0,1,23.311,19.316ZM13.264,21.4l-.2,0c-.16,0-.325,0-.487.005V19.169l.371-.005h.071q.679-.013,1.355-.043v2.243l-.29.013C13.815,21.388,13.542,21.4,13.264,21.4ZM11.3,21.41q-.309-.005-.614-.015l-.075,0q-.367-.012-.729-.03V19.12q.675.032,1.355.043h.071l.371.005v2.245l-.261,0ZM3.188,20.386l-.044-.013V18.2c.42.113.871.217,1.348.31v2.193q-.619-.131-1.139-.274Zm9.469,3.72.371.005v2.246q-.931-.009-1.8-.052V24.062q.675.032,1.355.043Zm1.711,0q.679-.013,1.355-.043V26.3q-.865.042-1.8.052V24.111l.371-.005Zm3.6-.2v2.231q-.648.068-1.348.118V24.01C17.077,23.981,17.527,23.944,17.969,23.9Zm.9-.1q.695-.084,1.348-.19v2.206q-.635.112-1.348.206Zm2.246-.35c.477-.094.928-.2,1.348-.31v2.17c-.4.115-.851.227-1.348.333Zm-15.274,0v2.193c-.5-.106-.947-.217-1.348-.333v-2.17C4.912,23.257,5.363,23.361,5.84,23.455Zm.9.161q.652.106,1.348.19v2.222q-.712-.094-1.348-.206Zm2.246.286c.442.043.892.079,1.348.109v2.24q-.7-.049-1.348-.118ZM7.87,21.215,7.733,21.2l-.1-.01v-2.23c.442.043.892.079,1.348.109v2.238C8.607,21.281,8.234,21.251,7.87,21.215ZM6.738,18.863v2.222q-.712-.094-1.348-.206V18.674Q6.043,18.779,6.738,18.863Zm8.834,2.424-.3.022v-2.24c.456-.03.906-.066,1.348-.109v2.231c-.278.029-.562.057-.853.08Zm1.947-.2V18.863q.695-.084,1.348-.19v2.206Q18.233,20.991,17.52,21.085Zm2.246-2.572c.477-.094.928-.2,1.348-.31v2.17c-.4.115-.851.227-1.348.333Zm-6.143-2.052c-.338-.009-.668-.022-.992-.037l-.052,0V14.179q.675.032,1.355.043H14l.371.005v2.243c-.219,0-.439,0-.653-.008ZM3.145,10.041V7.871c.42.113.871.217,1.348.31v2.193l-.166-.035c-.239-.053-.472-.107-.695-.165C3.461,10.13,3.3,10.086,3.145,10.041Zm8.165-1.209.371.005v2.243c-.6-.006-1.206-.022-1.8-.051V8.788q.675.032,1.355.043Zm1.711,0q.679-.013,1.355-.043v2.241l-.226.013H14.13c-.3.013-.609.023-.92.031l-.146,0c-.16,0-.323,0-.486.005V8.838l.371-.005Zm10.237.226-.013,0-.164.127a4.369,4.369,0,0,1-1.069.552V7.6a6.685,6.685,0,0,0,1.348-.618V8.837A.353.353,0,0,1,23.257,9.056ZM17.52,10.75V8.531q.695-.084,1.348-.19v2.2C18.442,10.619,17.993,10.688,17.52,10.75Zm2.246-.38V8.181c.477-.094.928-.2,1.348-.31v2.165C20.711,10.153,20.258,10.265,19.766,10.37ZM16.621,8.628v2.228q-.651.069-1.348.119V8.737C15.729,8.707,16.179,8.671,16.621,8.628ZM7.637,10.857V8.628c.442.043.892.079,1.348.109v2.236C8.527,10.941,8.076,10.9,7.637,10.857Zm-.9-2.326v2.22c-.089-.012-.181-.021-.27-.033L6.3,10.693q-.389-.056-.762-.119l-.147-.026V8.342Q6.043,8.447,6.738,8.531Zm4.83,7.829-.182-.013q-.431-.034-.842-.075l-.176-.018-.036,0V14.019c.442.043.892.079,1.348.109v2.239ZM8.6,16.024c-.178-.028-.345-.059-.514-.088v-2.2q.652.106,1.348.19v2.222c-.275-.036-.544-.074-.8-.115ZM7.188,13.572v2.189q-.745-.16-1.348-.337V13.261C6.26,13.374,6.711,13.478,7.188,13.572Zm-2.246-.585v2.134a2.8,2.8,0,0,1-1.31-.8l-.03-.05a.284.284,0,0,1-.008-.043v-1.86A6.685,6.685,0,0,0,4.941,12.987Zm10.774,1.235q.679-.013,1.355-.043v2.241c-.59.029-1.19.045-1.8.052V14.228l.371-.005Zm5.805,1.724c-.2.034-.4.068-.6.1l-.358.052c-.114.016-.232.03-.347.045v-2.22q.695-.084,1.348-.19v2.206Zm-3.042.384c-.168.014-.341.023-.51.035V14.128c.456-.03.906-.066,1.348-.109v2.229c-.261.027-.522.055-.79.077Zm5.134-.842c-.224.062-.46.121-.7.178-.112.026-.226.052-.343.077l-.106.022V13.572c.477-.094.928-.2,1.348-.31v2.17Zm2.437-4.371c-.041.305-.733.711-1.967,1.092h0a30.153,30.153,0,0,1-7.228,1.08l-.487.019-.406.012c-.372.008-.749.014-1.138.014s-.766-.006-1.138-.014l-.406-.012c-.165,0-.326-.012-.487-.019a30.149,30.149,0,0,1-7.228-1.08h0c-1.224-.378-1.914-.781-1.965-1.084a.105.105,0,0,1,.008-.027l.1.022c.176.042.356.082.539.121.893.192,1.882.35,2.936.47l.009,0h0c.718.082,1.463.146,2.227.191.006,0,.011,0,.017,0l.009,0q.825.049,1.672.069c.345.009.685.013,1.015.013.236,0,.478,0,.721-.007a34.4,34.4,0,0,0,8.394-1.04c.1-.027.192-.056.285-.084L21.7,10.8c.163-.052.319-.106.469-.161l.077-.03c.127-.048.249-.1.366-.149l.1-.044c.124-.056.245-.114.356-.173.05-.027.094-.054.141-.081s.108-.062.158-.094c.028-.018.062-.035.089-.053C25.469,10.452,26,10.929,26.05,11.115ZM12.129,3.9c7.407,0,11.154,1.166,11.224,1.836-.054.3-.744.7-1.965,1.082h0A30.153,30.153,0,0,1,14.16,7.9l-.487.019-.406.012c-.372.009-.749.014-1.138.014s-.766-.006-1.138-.014l-.406-.012c-.165,0-.326-.012-.487-.019A30.149,30.149,0,0,1,2.87,6.816h0C1.649,6.439.96,6.038.905,5.734.975,5.065,4.722,3.9,12.129,3.9ZM.9,8.838V6.978A6.685,6.685,0,0,0,2.246,7.6V9.747C1.372,9.419.9,9.091.9,8.838Zm2.176,6.217c.007.007.017.013.024.021a7.642,7.642,0,0,0,3.474,1.473l.112.025q.175.039.354.076a34.646,34.646,0,0,0,5.087.645h0q.912.053,1.866.071c.281.006.558.009.828.009.31,0,.628,0,.951-.011.588-.012,1.167-.036,1.738-.07h.006l.011,0a34.744,34.744,0,0,0,5.186-.664,8.138,8.138,0,0,1-1.329.519h0a31,31,0,0,1-7.763,1.1l-.3.009-.334.007c-.283,0-.567.009-.859.009-.389,0-.766-.006-1.138-.014l-.406-.012c-.165,0-.326-.012-.487-.019a30.149,30.149,0,0,1-7.228-1.08h0C1.635,16.767.943,16.36.9,16.055.953,15.887,1.407,15.464,3.075,15.055ZM.9,19.17V17.31a6.685,6.685,0,0,0,1.348.618v2.142l-.257-.1-.005.005C1.279,19.684.9,19.4.9,19.17Zm1.348,4.941v-1.86a6.685,6.685,0,0,0,1.348.618v2.151C2.72,24.693,2.247,24.365,2.246,24.112Zm21.114.909V22.87a6.685,6.685,0,0,0,1.348-.618v1.859C24.707,24.364,24.234,24.693,23.36,25.021ZM24.7,21c-.049.3-.739.708-1.966,1.087h0a30.153,30.153,0,0,1-7.228,1.08l-.487.019-.406.012c-.372.008-.749.014-1.138.014s-.767-.006-1.139-.014l-.4-.012-.49-.019a30.153,30.153,0,0,1-7.228-1.08h0c-1.188-.367-1.875-.757-1.961-1.058.134.047.273.092.415.137l.043.013q.182.056.372.108l.146.04.219.057a32.773,32.773,0,0,0,5.979.849h0c.7.041,1.407.067,2.126.075.191,0,.381.005.568.005.248,0,.5,0,.757-.008.655-.011,1.3-.035,1.935-.073h.009c.77-.046,1.516-.112,2.233-.195h.008c.01,0,.018,0,.028-.006.8-.092,1.554-.205,2.256-.337.145-.027.287-.054.428-.082l.094-.019a12.071,12.071,0,0,0,3.263-1.062c.043-.023.084-.048.124-.071s.1-.06.144-.09.093-.055.133-.083C24.428,20.608,24.672,20.891,24.7,21Zm.006-5.866v-2.15a6.685,6.685,0,0,0,1.348-.618v1.859C26.055,14.481,25.581,14.81,24.707,15.138Z" transform="translate(0 -3)" fill="#fff"/>
</svg>
