<svg xmlns="http://www.w3.org/2000/svg" width="32" height="24" viewBox="0 0 32 24">
  <g id="measuring-tape" transform="translate(0 -72.727)">
    <path id="XMLID_827_" d="M30.947,85.257a2.231,2.231,0,0,0-2.21-.191,22.037,22.037,0,0,1-3.783,1.31V81.15c0-1.14-1.2-2.127-3.47-2.863,0,0,0-2.793,0-2.81-.053-1.238-2.032-1.912-3.7-2.26a.467.467,0,0,0-.521.284.5.5,0,0,0,.227.653.45.45,0,0,0,.2.046c2.327.5,2.854,1.141,2.854,1.328,0,.16-.386.681-2.15,1.158a23.72,23.72,0,0,1-5.921.661,23.72,23.72,0,0,1-5.921-.661c-1.763-.477-2.15-1-2.15-1.158s.386-.681,2.15-1.158a23.721,23.721,0,0,1,5.921-.661,29.387,29.387,0,0,1,2.959.145.475.475,0,0,0,.512-.441.485.485,0,0,0-.421-.536,30.273,30.273,0,0,0-3.05-.15,24.624,24.624,0,0,0-6.155.692c-1.893.512-2.853,1.222-2.853,2.109v2.759C1.2,79.023,0,80.01,0,81.15V89.3a1.866,1.866,0,0,0,.2.848,8.779,8.779,0,0,0,3.284,3.3.451.451,0,0,0,.24.069.464.464,0,0,0,.4-.239.5.5,0,0,0-.162-.673q-.431-.269-.812-.556V87.848a.469.469,0,1,0-.937,0v3.394A6.158,6.158,0,0,1,1.028,89.68a.844.844,0,0,1-.09-.383V81.15c0-.476.678-1.187,2.532-1.831v.992c0,.887.96,1.6,2.853,2.109a24.628,24.628,0,0,0,6.155.692,24.624,24.624,0,0,0,6.155-.692c1.893-.512,2.853-1.222,2.853-2.109v-.992c1.856.645,2.532,1.357,2.532,1.831,0,.83-1.772,1.634-3.289,2.071a.494.494,0,0,0-.328.6.473.473,0,0,0,.452.361.448.448,0,0,0,.124-.018,8.935,8.935,0,0,0,3.041-1.39V86.6q-.774.167-1.58.295V86a.469.469,0,1,0-.937,0v1.021c-.786.1-1.59.173-2.406.217v-.6a.469.469,0,1,0-.937,0v.638q-.471.013-.945.013-.7,0-1.4-.029v-.23a.469.469,0,1,0-.937,0v.179a27.575,27.575,0,0,1-8.6-1.889A.3.3,0,0,1,6.1,84.95a.288.288,0,0,1,.345-.232,36.871,36.871,0,0,0,6.036.474,36.138,36.138,0,0,0,6.448-.547.49.49,0,0,0,.38-.569.471.471,0,0,0-.543-.4,35.237,35.237,0,0,1-6.285.532,35.965,35.965,0,0,1-5.886-.461,1.214,1.214,0,0,0-1.4.94c-.006.022-.01.044-.015.066a6.55,6.55,0,0,1-2.1-1.893.456.456,0,0,0-.651-.132.506.506,0,0,0-.126.682,8.845,8.845,0,0,0,3.629,2.827h0a30.048,30.048,0,0,0,11.285,2.039,32.245,32.245,0,0,0,8.7-1.144v7.436a27.994,27.994,0,0,1-4.086.866V91.511a.469.469,0,1,0-.937,0v4.038a34.316,34.316,0,0,1-3.681.2h-.051V91.707a.469.469,0,1,0-.938,0V95.73a33.325,33.325,0,0,1-3.731-.313V91.253a.469.469,0,1,0-.937,0v4.017a26.564,26.564,0,0,1-3.731-.919V90.14a.469.469,0,1,0-.937,0v3.879q-.521-.2-1.014-.417a.461.461,0,0,0-.615.26.5.5,0,0,0,.248.644,29.5,29.5,0,0,0,11.707,2.221c5.327,0,10.3-1.177,13.635-3.23A2.476,2.476,0,0,0,32,91.392V87.3A2.458,2.458,0,0,0,30.947,85.257ZM19.313,81.175V80.134a.469.469,0,1,0-.937,0v1.341a17.509,17.509,0,0,1-2.246.431V80.491a.469.469,0,1,0-.937,0v1.518c-.717.066-1.471.106-2.246.117v-1.7a.469.469,0,1,0-.937,0v1.7c-.774-.011-1.528-.051-2.246-.117V80.16a.469.469,0,1,0-.937,0v1.746a17.511,17.511,0,0,1-2.246-.431v-2a.469.469,0,1,0-.937,0v1.7c-.99-.381-1.235-.737-1.235-.865V76.873a7.283,7.283,0,0,0,1.915.765,24.627,24.627,0,0,0,6.155.692,24.627,24.627,0,0,0,6.155-.692,7.284,7.284,0,0,0,1.915-.765V80.31C20.548,80.438,20.3,80.794,19.313,81.175Zm11.75,10.217a1.48,1.48,0,0,1-.69,1.257,17.636,17.636,0,0,1-3.52,1.62V86.846a21.227,21.227,0,0,0,2.262-.88,1.316,1.316,0,0,1,1.32.114,1.447,1.447,0,0,1,.628,1.216v4.1Z" fill="#fff"/>
    <path id="XMLID_831_" d="M443.754,300.439c-.744,0-1.3.864-1.3,2.009s.561,2.009,1.3,2.009,1.3-.864,1.3-2.009S444.5,300.439,443.754,300.439Zm0,3.081c-.086-.014-.368-.376-.368-1.072s.282-1.058.366-1.072c.086.014.368.376.368,1.072S443.839,303.506,443.755,303.52Z" transform="translate(-414.797 -212.658)" fill="#fff"/>
    <path id="XMLID_834_" d="M104.541,96.8c-1.225.181-2.041.428-2.041,1.048s.816.867,2.041,1.048a33,33,0,0,0,8.06,0c1.225-.181,2.041-.428,2.041-1.048s-.816-.867-2.041-1.048a33,33,0,0,0-8.06,0Zm8.6,1.048a29.346,29.346,0,0,1-9.132,0,29.346,29.346,0,0,1,9.132,0Z" transform="translate(-96.094 -22.341)" fill="#fff"/>
  </g>
</svg>
