<svg xmlns="http://www.w3.org/2000/svg" width="24" height="24" viewBox="0 0 24 24">
  <g id="label" transform="translate(0 -0.502)">
    <path id="Path_4431" data-name="Path 4431" d="M190.507,175.829a.357.357,0,0,0,.252-.609l-5.979-5.979a.356.356,0,1,0-.5.5l5.979,5.979A.355.355,0,0,0,190.507,175.829Zm0,0" transform="translate(-175.539 -160.363)" fill="#fff"/>
    <path id="Path_4432" data-name="Path 4432" d="M197.1,249.694a.356.356,0,0,0,.252-.608l-4-4a.357.357,0,0,0-.5.5l4,4A.356.356,0,0,0,197.1,249.694Zm0,0" transform="translate(-183.704 -232.542)" fill="#fff"/>
    <path id="Path_4433" data-name="Path 4433" d="M151.759,204.361a.356.356,0,0,0,.252-.608l-.871-.871a.357.357,0,0,0-.5.5l.871.871A.355.355,0,0,0,151.759,204.361Zm0,0" transform="translate(-143.475 -192.456)" fill="#fff"/>
    <path id="Path_4434" data-name="Path 4434" d="M117,236.518a.357.357,0,0,0,0,.5l3.878,3.878a.357.357,0,0,0,.5-.5l-3.878-3.878A.357.357,0,0,0,117,236.518Zm0,0" transform="translate(-111.415 -224.397)" fill="#fff"/>
    <path id="Path_4435" data-name="Path 4435" d="M24,1.873A1.23,1.23,0,0,0,23.257.6c-.474-.185-1.4-.19-3.125.838a13.738,13.738,0,0,0-3.049,2.489L12.456,2.28a1.516,1.516,0,0,0-1.591.38L.451,13.418a1.63,1.63,0,0,0,0,2.252l8.1,8.365a1.508,1.508,0,0,0,2.18,0l7.67-7.925a.377.377,0,0,0,0-.521.349.349,0,0,0-.5,0l-7.67,7.925a.81.81,0,0,1-1.171,0l-8.1-8.366a.877.877,0,0,1,0-1.21L11.369,3.18a.814.814,0,0,1,.855-.2l6.025,2.141a.837.837,0,0,1,.514.531l.1.313c-.456.266-.894.508-1.285.717a1.822,1.822,0,0,0-.154-.182,1.756,1.756,0,0,0-2.538,0,1.9,1.9,0,0,0,0,2.622,1.756,1.756,0,0,0,2.538,0,1.9,1.9,0,0,0,.467-1.778c.369-.2.78-.423,1.208-.671l1.732,5.2a.881.881,0,0,1-.2.883l-1.744,1.8a.377.377,0,0,0,0,.521.348.348,0,0,0,.5,0l1.744-1.8a1.641,1.641,0,0,0,.368-1.644L19.732,6.3q.177-.108.354-.219C22.72,4.421,24,3.046,24,1.873ZM16.926,7.02l-.233.118.065-.261a1.072,1.072,0,0,1,.165.14Zm0,1.577a1.058,1.058,0,0,1-1.529,0,1.145,1.145,0,0,1,0-1.58,1.062,1.062,0,0,1,.673-.322l-.254,1.02a.376.376,0,0,0,.116.373.347.347,0,0,0,.376.054c.008,0,.369-.172.928-.457A1.137,1.137,0,0,1,16.924,8.6Zm2.513-3.189a1.558,1.558,0,0,0-.956-.988l-.656-.233c1.677-1.753,4.289-3.249,5.18-2.9.084.033.282.11.282.588,0,.5-.463,1.619-3.566,3.57l-.226.141Zm0,0" transform="translate(0 0)" fill="#fff"/>
  </g>
</svg>
