<svg id="list_1_" data-name="list (1)" xmlns="http://www.w3.org/2000/svg" width="24" height="24" viewBox="0 0 24 24">
  <path id="Path_4419" data-name="Path 4419" d="M22.829,15.8h9.428a.4.4,0,1,0,0-.8H22.829a.4.4,0,1,0,0,.8Z" transform="translate(-13.457 -9)" fill="#fff"/>
  <path id="Path_4420" data-name="Path 4420" d="M22.829,30.8h9.428a.4.4,0,1,0,0-.8H22.829a.4.4,0,1,0,0,.8Z" transform="translate(-13.457 -18)" fill="#fff"/>
  <path id="Path_4421" data-name="Path 4421" d="M22.829,45.8h9.428a.4.4,0,1,0,0-.8H22.829a.4.4,0,1,0,0,.8Z" transform="translate(-13.457 -27)" fill="#fff"/>
  <path id="Path_4422" data-name="Path 4422" d="M23.6,0H.4A.4.4,0,0,0,0,.4V23.6a.4.4,0,0,0,.4.4H23.6a.4.4,0,0,0,.4-.4V.4A.4.4,0,0,0,23.6,0Zm-.4,23.2H.8V.8H23.2Z" fill="#fff"/>
  <path id="Path_4423" data-name="Path 4423" d="M11.6,13.99l.971-.511.971.511-.185-1.082.786-.766-1.086-.158L12.572,11l-.486.984L11,12.142l.786.766Z" transform="translate(-6.6 -6.6)" fill="#fff"/>
  <path id="Path_4424" data-name="Path 4424" d="M11.6,29.073l.971-.511.971.511-.185-1.082.786-.766-1.086-.158-.486-.984-.486.984L11,27.225l.786.766Z" transform="translate(-6.6 -15.65)" fill="#fff"/>
  <path id="Path_4425" data-name="Path 4425" d="M11.6,44.516,12.572,44l.971.511-.185-1.082.786-.766-1.086-.158-.486-.984-.486.984L11,42.668l.786.766Z" transform="translate(-6.6 -24.916)" fill="#fff"/>
</svg>
