<svg xmlns="http://www.w3.org/2000/svg" width="24" height="20.336" viewBox="0 0 24 20.336">
  <g id="profits" transform="translate(0 -39.08)">
    <g id="Group_4177" data-name="Group 4177" transform="translate(3.562 39.081)">
      <g id="Group_4176" data-name="Group 4176" transform="translate(0 0)">
        <path id="Path_4819" data-name="Path 4819" d="M91.941,41.175l-.252-1.8a.342.342,0,0,0-.391-.291l-1.983.3a.342.342,0,1,0,.1.676l1.155-.177a28.089,28.089,0,0,1-4.947,4.841,20.252,20.252,0,0,1-4.687,2.658,12.44,12.44,0,0,1-4.589,1,.342.342,0,0,0-.033.683c.011,0,.058,0,.138,0a13.437,13.437,0,0,0,4.691-1.032A20.892,20.892,0,0,0,86.011,45.3a28.765,28.765,0,0,0,5.115-5l.137.977a.342.342,0,0,0,.678-.095Z" transform="translate(-75.993 -39.081)" fill="#fff"/>
      </g>
    </g>
    <g id="Group_4179" data-name="Group 4179" transform="translate(0 39.308)">
      <g id="Group_4178" data-name="Group 4178" transform="translate(0 0)">
        <path id="Path_4820" data-name="Path 4820" d="M23.369,62.166H20.6a4.164,4.164,0,0,0,.64-.524,4.122,4.122,0,0,0-.913-6.521V53.741a.342.342,0,1,0-.684,0v1.077a4.114,4.114,0,0,0-2.868.084V50.7a.08.08,0,0,1,.08-.08h2.707a.08.08,0,0,1,.08.08v.849a.342.342,0,0,0,.684,0V50.7a.765.765,0,0,0-.764-.764H16.859a.765.765,0,0,0-.764.764v4.558a4.124,4.124,0,0,0-.684,6.384,4.166,4.166,0,0,0,.64.524H13.89V53.8a.765.765,0,0,0-.764-.764H10.418a.765.765,0,0,0-.764.764v8.362h-2.2V56.618a.765.765,0,0,0-.764-.764H3.977a.765.765,0,0,0-.764.764v5.548H1.8V44.572a.632.632,0,0,0-.631-.631H.631A.632.632,0,0,0,0,44.572V47a.342.342,0,1,0,.684,0V44.625h.435V62.219a.632.632,0,0,0,.631.631H23.316v.515H.684v-14.2a.342.342,0,0,0-.684,0V63.418a.632.632,0,0,0,.631.631H23.369A.632.632,0,0,0,24,63.418V62.8A.632.632,0,0,0,23.369,62.166Zm-16.6,0H3.9V56.618a.08.08,0,0,1,.08-.08H6.685a.08.08,0,0,1,.08.08v5.548Zm3.573,0V53.8a.08.08,0,0,1,.08-.08h2.707a.08.08,0,0,1,.08.08v8.362Zm9.5-.35a3.461,3.461,0,0,1-1.106.325l-.019,0-.079.008-.12.009-.038,0c-.049,0-.1,0-.148,0s-.1,0-.149,0l-.047,0-.111-.008-.092-.01-.066-.008-.093-.014-.012,0a3.435,3.435,0,0,1-1.149-.412l-.006,0a3.457,3.457,0,0,1-.708-.545,3.44,3.44,0,0,1,.823-5.473l.025-.013a3.454,3.454,0,0,1,2.866-.139l.021.008c.043.017.085.036.127.055l.05.024a3.442,3.442,0,0,1,.044,6.191Z" transform="translate(0 -43.941)" fill="#fff"/>
      </g>
    </g>
    <g id="Group_4181" data-name="Group 4181" transform="translate(16.884 51.691)">
      <g id="Group_4180" data-name="Group 4180">
        <path id="Path_4821" data-name="Path 4821" d="M361.785,310.178v-1.219c.42.03.576.222.72.222.18,0,.264-.228.264-.342,0-.294-.576-.42-.984-.432v-.162c0-.072-.09-.138-.18-.138a.158.158,0,0,0-.174.138v.174a1.114,1.114,0,0,0-1.141,1.117c0,.768.6.984,1.141,1.177v1.411c-.612-.048-.774-.468-.972-.468-.15,0-.276.2-.276.342,0,.294.5.7,1.249.708h0v.186a.158.158,0,0,0,.174.138c.09,0,.18-.066.18-.138v-.2a1.163,1.163,0,0,0,1.092-1.237C362.877,310.634,362.307,310.37,361.785,310.178Zm-.318-.114c-.318-.12-.576-.246-.576-.588,0-.312.24-.462.576-.5Zm.282,2.047v-1.267a.7.7,0,0,1,.528.672A.571.571,0,0,1,361.749,312.111Z" transform="translate(-360.182 -308.107)" fill="#fff"/>
      </g>
    </g>
  </g>
</svg>
